#!OML:ASF F:\VICON\USERDATA\INSTALL\rory3\rory3.ASF
:FULLY-SPECIFIED
:DEGREES
1
root 0.2208688232005574 17.205617084454303 -32.89579690947871 1.6068665221318654 -7.696241454970123 -5.250560649272311
lfemur -7.20258220948457 9.456104502677977 -13.35631741131206
ltibia 96.96247317639188
lfoot 17.693059046771246 -13.056810699176111
ltoes 18.119457817960516
rfemur -30.48325045947442 6.164535906060896 32.353647894493676
rtibia 52.692718316350664
rfoot -17.72677485270148 -5.638714263802809
rtoes -5.979825558481966
lowerback 16.880166683533474 -0.7867127911549924 2.8771848123857957
upperback 0.6951516804401503 -0.11965836570409216 2.7954599537407505
thorax -8.518531491998163 -0.11492751316364713 2.058373217223692
lowerneck -18.93912246239548 -2.3763855851989435 -3.0917549721381388
upperneck 13.71389321250151 -3.201041125310887 3.229823584019969
head 7.459832633295648 -1.270435708330978 1.3022990417082867
lclavicle 2.9801520700817884e-15 1.1900925812548823e-16
lhumerus -43.804864149433406 -14.247456180012797 98.1889167561191
lradius 107.09090009679122
lwrist 32.28945920515027
lhand -20.941385415912205 2.3401591509669046
lfingers 7.125019999999999
lthumb 5.430562424468823 32.23527773547352
rclavicle 2.9801520700817884e-15 1.1900925812548823e-16
rhumerus -52.77322647016779 9.502333762713008 -98.66107018728938
rradius 106.50360680864635
rwrist -14.669085999760977
rhand -17.216872005697795 38.69370707175024
rfingers 7.125019999999999
rthumb 9.025922389992614 8.933864291360855
2
root 0.2161466461712097 17.05600356233491 -31.93241269060021 2.1615337395130587 -6.616624605341052 -5.536422472455881
lfemur -15.028997842070767 10.713806341128436 -11.598237344584684
ltibia 102.70193337829457
lfoot 15.901578871161975 -13.293867739931468
ltoes 11.51562743268296
rfemur -27.871875533432487 6.208337353281269 33.1202881165292
rtibia 53.46716379947584
rfoot -20.356038496013305 -8.627434713951383
rtoes -9.39400801051399
lowerback 17.463279687852214 -1.0316908703538155 2.4555381206371774
upperback -0.5159229347908655 -0.36729421438533083 3.473182316820031
thorax -10.339702310298499 -0.18195377752294495 3.496424735973454
lowerneck -17.59739291361806 -2.271459764050182 -4.107447953029142
upperneck 13.649758033991878 -2.920843730057316 3.379046263242201
head 7.113701477891374 -1.180246771590563 1.6741848943958333
lclavicle 2.9801521026224736e-15 1.1900930259029552e-16
lhumerus -46.620596395831 -11.613915231087125 98.80554056868122
lradius 105.97371046592826
lwrist 31.33228673544148
lhand -21.04494879890752 1.2890244037513254
lfingers 7.125019999999999
lthumb 5.330538757919803 31.16673817325778
rclavicle 2.9801521026224736e-15 1.1900930259029552e-16
rhumerus -50.691648365705305 11.780969455617385 -98.66390541223566
rradius 107.05611207588554
rwrist -14.852687968079534
rhand -16.920126848627522 38.7254684078124
rfingers 7.125019999999999
rthumb 9.31228864984185 8.971609961950318
3
root 0.2170089272391128 16.945882439338792 -30.97821462111267 2.479463702960346 -6.863752264785768 -5.087958642545759
lfemur -22.09377731005068 13.013708458356593 -11.8963470301567
ltibia 106.45252083480898
lfoot 12.413003502827186 -12.893932515415976
ltoes 0.49127554616447533
rfemur -24.384710241688857 6.910295880563442 32.74753767211932
rtibia 53.454114279989355
rfoot -21.883186967974623 -10.064156526838925
rtoes -9.645934973071682
lowerback 16.938982116245732 -0.15537891525230718 2.220188781638115
upperback -0.07659286142111577 0.6176912391128857 3.003840887355741
thorax -9.525096806383909 0.2761727558690989 2.6261040601930996
lowerneck -18.49333017247583 -2.6205176098172624 -3.475696231837569
upperneck 13.614860951567522 -3.5130188247389103 3.7568174607209706
head 7.334843169383118 -1.4128059818779972 1.542047464105415
lclavicle 2.9801520622371473e-15 1.190092543140775e-16
lhumerus -48.04168398069895 -12.844195761246809 98.6075028839628
lradius 105.84732606717878
lwrist 30.77841402660239
lhand -20.933202486799097 1.1462117245095356
lfingers 7.125019999999999
lthumb 5.438454141413481 31.022587195934204
rclavicle 2.9801520622371473e-15 1.190092543140775e-16
rhumerus -47.337421886382934 12.384920923760067 -98.88121706547098
rradius 108.31904707097391
rwrist -14.714995550552294
rhand -17.731919440202958 38.12749653403768
rfingers 7.125019999999999
rthumb 8.528795773501034 8.36406687825918
4
root 0.21903562722942266 16.987861765358993 -29.960030269660805 2.809798283762039 -6.355054105630681 -5.259541574062451
lfemur -28.741169711545158 14.123667180870237 -11.744297430219204
ltibia 107.66965143759768
lfoot 9.705649610897256 -13.25404016570586
ltoes -1.1607497935356736
rfemur -20.543439234567476 6.846996771006015 33.360578335376154
rtibia 52.40580288124095
rfoot -22.51300430160644 -12.105840555879452
rtoes -13.499882446886321
lowerback 16.888181094144805 -0.07449943069605347 2.538449481942122
upperback -0.5437926595442892 0.821895986310653 3.099667922697782
thorax -10.07720737822753 0.36296680109238433 2.5336649753048257
lowerneck -17.94794598799965 -2.731947614427515 -3.7234407110843533
upperneck 13.412166349967567 -3.66065435339521 4.069411977098208
head 7.140159033253714 -1.483166676847507 1.7044171312974632
lclavicle 2.9801521308049688e-15 1.190092613014774e-16
lhumerus -51.44442961013456 -12.565853850801345 98.93398011743925
lradius 106.48255908990308
lwrist 31.644064029088025
lhand -21.42571615997912 2.487356724583094
lfingers 7.125019999999999
lthumb 4.962748177635465 32.380036156137514
rclavicle 2.9801521308049688e-15 1.190092613014774e-16
rhumerus -44.73821670684338 13.887233151914526 -98.86220438053712
rradius 109.72322955621115
rwrist -15.138834552609172
rhand -16.739091454208772 37.9625649042278
rfingers 7.125019999999999
rthumb 9.486982923780511 8.221856164967242
5
root 0.2302418863048195 17.046155331823066 -28.958000870586325 3.2422528337321013 -5.783098244748363 -5.238203436967101
lfemur -34.961162110409 14.218277621702148 -12.751271387510958
ltibia 107.21831123851962
lfoot 7.3362471581673585 -13.871616488541703
ltoes 0.5162942913159423
rfemur -16.523829963153943 6.794872109784485 33.4401902278997
rtibia 50.75834454446932
rfoot -23.233788492503177 -11.798334170122203
rtoes -18.553967166060282
lowerback 16.89154197601408 0.11159915615692773 3.220189321028802
upperback -0.839033749692137 1.1895367092582076 2.851864683249544
thorax -10.430747550228869 0.49036842167998246 1.6251426766718613
lowerneck -17.98465141554331 -3.0503941044418257 -3.576752753619893
upperneck 13.34280089620515 -4.14043645534915 4.409670927065603
head 7.142051535443231 -1.694307055620969 1.708478098788882
lclavicle 2.980152102331933e-15 1.190092797226461e-16
lhumerus -54.56323093361264 -13.133896023788633 99.04233095141647
lradius 107.4618968558041
lwrist 33.41014719395093
lhand -21.081946084791248 2.250514006042164
lfingers 7.125019999999999
lthumb 5.29478077603007 32.143039800550746
rclavicle 2.980152102331933e-15 1.190092797226461e-16
rhumerus -41.998061075777784 14.557691373834833 -98.92958266749574
rradius 111.32412658252329
rwrist -15.4945882776835
rhand -16.889983239288124 38.21406669654508
rfingers 7.125019999999999
rthumb 9.34133778219047 8.466972182507547
6
root 0.24516885424014917 17.17348598894595 -27.925034209769848 3.5311248861901725 -5.998432269245884 -5.315630150406816
lfemur -40.02085111532209 14.354480092078537 -13.95463836642206
ltibia 104.71262916627512
lfoot 6.846362496762713 -13.680278184032844
ltoes 9.23822932145695
rfemur -12.08803459818942 7.107398124740284 33.51766879321799
rtibia 48.56063146935047
rfoot -22.043747380797285 -10.61023670148012
rtoes -19.12128636817504
lowerback 17.00477784207111 0.8401696700979742 4.049847472113884
upperback -1.1524096559402024 2.2890245266065237 2.5285308779200486
thorax -10.840484382377143 0.9456271538868362 0.3122519581746333
lowerneck -17.901235895249396 -3.4673539578075974 -3.482841166406265
upperneck 13.369638210207171 -4.738507550138214 4.724653821301891
head 7.154409012611406 -1.9708198400650017 1.6940728819698603
lclavicle 2.9801521029130138e-15 1.1900922763516116e-16
lhumerus -56.979294493686474 -13.923590266150164 99.09867908401083
lradius 108.08263403215423
lwrist 34.51662146625102
lhand -20.927311938536825 2.3459044727748513
lfingers 7.125019999999999
lthumb 5.444169033161929 32.24122756511561
rclavicle 2.9801521029130138e-15 1.1900922763516116e-16
rhumerus -39.85294532829278 14.512227772619664 -98.73628703733476
rradius 113.1825492024206
rwrist -15.714787441186932
rhand -16.631808003101693 38.20257452325818
rfingers 7.125019999999999
rthumb 9.59049162586218 8.461488142102896
7
root 0.2702429013564418 17.330958200059644 -26.82385775002807 4.091039724572464 -6.282616961130568 -5.198126904163022
lfemur -43.72139287479314 13.732199342355537 -15.679303248090562
ltibia 100.35595629957001
lfoot 0.888597092725015 -12.094891807514678
ltoes -8.397110292502443
rfemur -7.888944478836388 7.360329927447868 33.112627532473944
rtibia 45.991268079256265
rfoot -18.64600059277946 -8.934941099708617
rtoes -21.140660740143968
lowerback 15.889223590847253 1.7874266701786152 4.90964035809069
upperback -1.290332844468911 3.5958825442469875 2.098314974069438
thorax -10.23635365956673 1.5084296070239063 -1.2029639709271147
lowerneck -18.262443288422425 -3.940975255559115 -2.861326119280135
upperneck 13.69863109782943 -5.4280647824136805 4.362050521127054
head 7.35659757573983 -2.3054516078434184 1.2599967438612576
lclavicle 2.98015205468307e-15 1.1900925685496473e-16
lhumerus -59.041940089437915 -14.540191376115773 99.08535784406753
lradius 108.55098311876617
lwrist 34.684297097489384
lhand -20.872904165178397 2.611928145090142
lfingers 7.125019999999999
lthumb 5.4967263006992075 32.51185136100941
rclavicle 2.98015205468307e-15 1.1900925685496473e-16
rhumerus -37.98935138097791 14.049148520242278 -98.30800129250873
rradius 114.92257454583958
rwrist -16.060286704640152
rhand -16.79937867288757 41.271237366099164
rfingers 7.125019999999999
rthumb 9.428789131293785 11.489714111803778
